<?xml version="1.0" encoding="UTF-8"?>
<svg width="16px" height="16px" viewBox="0 0 16 16" version="1.1" xmlns="http://www.w3.org/2000/svg" xmlns:xlink="http://www.w3.org/1999/xlink">
    <!-- Generator: Sketch 54.1 (76490) - https://sketchapp.com -->
    <title></title>
    <desc>Created with Sketch.</desc>
    <g id="Page-1" stroke="none" stroke-width="1" fill="none" fill-rule="evenodd">
        <g id="Detail-2nd-Level" transform="translate(-296.000000, -718.000000)" fill="#FFCC00" fill-rule="nonzero">
            <path d="M311.75,726 C311.75,727.40625 311.40625,728.6875 310.71875,729.875 C310,731.0625 309.0625,732 307.875,732.6875 C306.6875,733.40625 305.40625,733.75 304,733.75 C302.59375,733.75 301.3125,733.40625 300.125,732.71875 C298.9375,732.03125 298,731.09375 297.3125,729.90625 C296.59375,728.71875 296.25,727.4375 296.25,726.03125 C296.25,724.625 296.59375,723.34375 297.28125,722.15625 C297.96875,720.96875 298.90625,720.03125 300.09375,719.34375 C301.28125,718.65625 302.5625,718.3125 303.96875,718.3125 C305.375,718.3125 306.65625,718.65625 307.84375,719.34375 C309.03125,720.0625 309.96875,721 310.65625,722.1875 C311.34375,723.375 311.6875,724.65625 311.6875,726.0625 L311.75,726 Z M303.9375,727.625 C303.53125,727.625 303.1875,727.75 302.90625,728.03125 C302.625,728.3125 302.46875,728.65625 302.46875,729.0625 C302.46875,729.46875 302.625,729.8125 302.90625,730.09375 C303.1875,730.375 303.53125,730.53125 303.9375,730.53125 C304.34375,730.53125 304.6875,730.375 304.96875,730.09375 C305.25,729.8125 305.375,729.46875 305.375,729.0625 C305.375,728.65625 305.25,728.3125 304.96875,728.03125 C304.6875,727.75 304.34375,727.625 303.9375,727.625 Z M302.5625,722.46875 L302.8125,726.71875 C302.8125,726.8125 302.84375,726.875 302.90625,726.9375 C302.96875,727.03125 303.0625,727.0625 303.15625,727.0625 L304.65625,727.0625 C304.75,727.0625 304.84375,727.03125 304.90625,726.96875 C304.96875,726.90625 305,726.84375 305,726.75 L305.25,722.5 C305.25,722.375 305.21875,722.28125 305.15625,722.21875 C305.0625,722.15625 304.96875,722.125 304.875,722.125 L302.875,722.125 C302.78125,722.125 302.6875,722.15625 302.625,722.21875 C302.53125,722.3125 302.5,722.40625 302.5,722.53125 L302.5625,722.46875 Z" id=""></path>
        </g>
    </g>
</svg>