<svg enable-background="new 0 0 16 16" viewBox="0 0 16 16" xmlns="http://www.w3.org/2000/svg"><path d="m8 .3c1.4 0 2.7.3 3.9 1s2.1 1.7 2.8 2.8c.7 1.2 1 2.5 1 3.8s-.3 2.7-1 3.8c-.7 1.3-1.7 2.3-2.8 3s-2.5 1-3.9 1-2.7-.3-3.8-1-2.2-1.7-2.9-2.9-1-2.5-1-3.8.3-2.7 1-3.8 1.7-2.2 2.9-2.9 2.4-1 3.8-1zm3.8 9.7-2-2 2-2c.1-.1.1-.2.1-.3s0-.2-.1-.3l-1.2-1.2c-.1-.1-.1-.1-.2-.1s-.2 0-.3.1l-2 2-2-2c-.2-.1-.3-.1-.4-.1s-.2 0-.3.1l-1.2 1.3s-.1.1-.1.2 0 .2.1.3l2 2-2 2c-.1.1-.1.2-.1.3s0 .2.1.3l1.2 1.2c.1.1.1.1.2.1s.2 0 .3-.1l2-2 2 2c.1.1.2.1.3.1s.2 0 .3-.1l1.2-1.2c.1-.1.1-.1.1-.2s.1-.3 0-.4z" fill="#ff3b30"/></svg>