<?xml version="1.0" encoding="utf-8"?>
<!-- Generator: Adobe Illustrator 23.0.6, SVG Export Plug-In . SVG Version: 6.00 Build 0)  -->
<svg version="1.1" id="Ebene_1" xmlns="http://www.w3.org/2000/svg" xmlns:xlink="http://www.w3.org/1999/xlink" x="0px" y="0px"
	 viewBox="0 0 16 16" style="enable-background:new 0 0 16 16;" xml:space="preserve">
<style type="text/css">
	.st0{fill:#248717;}
</style>
<title>ïª</title>
<desc>Created with Sketch.</desc>
<g>
	<path class="st0" d="M14.6,11.9c-0.7,1.2-1.6,2.1-2.8,2.8c-1.2,0.7-2.5,1-3.9,1s-2.7-0.3-3.9-1C2.9,14,2,13.1,1.3,11.9
		s-1-2.5-1-3.9s0.3-2.7,1-3.9s1.6-2.1,2.8-2.8s2.5-1,3.9-1s2.7,0.3,3.9,1s2.1,1.6,2.8,2.8c0.7,1.2,1,2.5,1,3.9S15.3,10.7,14.6,11.9z
		 M12.8,6.4c0.1-0.1,0.2-0.2,0.2-0.3c0-0.1-0.1-0.3-0.2-0.3L12.1,5c-0.1-0.1-0.2-0.2-0.4-0.2S11.5,4.9,11.4,5L6.7,9.6L4.5,7.5
		C4.4,7.4,4.3,7.3,4.2,7.3c-0.1,0-0.3,0.1-0.4,0.2L3.1,8.2C3,8.3,3,8.4,3,8.5S3,8.8,3.1,8.9l3.2,3.2c0.1,0.1,0.2,0.2,0.3,0.2
		c0.1,0,0.3-0.1,0.3-0.2L12.8,6.4z"/>
</g>
</svg>
