<svg id="Ebene_1" xmlns="http://www.w3.org/2000/svg" viewBox="0 0 30 30"><style>.st0{fill:#999999;}</style><path class="st0" d="M6.2 25.3l5.8-5.7c-1.2-1.2-1.9-2.8-1.9-4.6 0-3.6 2.9-6.5 6.5-6.5V.4C8.5.4 2 6.9 2 15c0 4 1.6 7.7 4.2 10.3z"/><path d="M16.6 7.9c-3.9 0-7.1 3.2-7.1 7.1 0 1.7.6 3.3 1.6 4.6l-6.7 6.8c-.3.3-.3.8 0 1.2.2.2.4.2.6.2.2 0 .4-.1.6-.2l6.8-6.8c1.2.9 2.6 1.4 4.2 1.4 3.9 0 7.1-3.2 7.1-7.1s-3.2-7.2-7.1-7.2zm0 13c-3.3 0-5.9-2.6-5.9-5.9s2.6-5.9 5.9-5.9c3.3 0 5.9 2.6 5.9 5.9s-2.7 5.9-5.9 5.9z"/><path d="M16.6 30c-8.3 0-15-6.7-15-15s6.7-15 15-15v.8C8.8.8 2.4 7.2 2.4 15s6.3 14.2 14.2 14.2v.8z"/><path d="M16.6 27.1C9.9 27.1 4.5 21.6 4.5 15S9.9 2.8 16.6 2.8v.4C10.2 3.3 4.9 8.5 4.9 15s5.2 11.7 11.7 11.7v.4z"/><path d="M16.6 24.6C11.3 24.6 7 20.3 7 15s4.3-9.6 9.6-9.6v.4c-5.1 0-9.2 4.1-9.2 9.2s4.1 9.2 9.2 9.2v.4z"/></svg>