<svg id="Ebene_1" xmlns="http://www.w3.org/2000/svg" viewBox="0 0 232.4 79.4"><style>.st0{fill:#999999;}</style><path d="M66.1 38.4s2.8 2.8 6.7 2.8c2.5 0 4.5-1.4 4.5-3.9 0-5.7-12.7-4.5-12.7-12.5 0-4.1 3.5-7.3 8.5-7.3 4.9 0 7.4 2.6 7.4 2.6l-1.7 3s-2.4-2.3-5.8-2.3c-2.8 0-4.8 1.7-4.8 3.8 0 5.4 12.7 4 12.7 12.5 0 4-3.1 7.4-8.3 7.4-5.6 0-8.7-3.5-8.7-3.5l2.2-2.6zM86.7 18h3.7v26.2h-3.7zM113.5 18l5.1 19.2c.4 1.4.6 2.8.6 2.8h.1s.1-1.4.5-2.8l4.8-19.2h3.8l-6.9 26.2h-4.3l-4.5-17c-.4-1.7-.8-3.7-.8-3.7h-.1s-.3 2-.8 3.7l-4.5 17h-4.3L95.5 18h3.8l4.6 19.2c.3 1.4.5 2.8.5 2.8h.1s.2-1.3.6-2.8l5.1-19.2h3.3zM133.4 18h15.3v3.2h-11.6v8.2h9.4v3.2h-9.4V41h12.2v3.2h-15.9zM166.5 17.5c6.3 0 9.5 3.5 9.5 3.5l-1.8 2.7s-3-2.9-7.6-2.9c-5.9 0-9.7 4.5-9.7 10 0 5.6 3.9 10.4 9.7 10.4 4.9 0 8.1-3.4 8.1-3.4l2 2.6s-3.6 4.2-10.2 4.2c-7.9 0-13.4-6-13.4-13.7 0-7.6 5.7-13.4 13.4-13.4zM193.6 17.5c-7.6 0-13.5 5.8-13.5 13.4 0 7.7 5.9 13.7 13.5 13.7s13.4-6 13.4-13.7c0-7.5-5.8-13.4-13.4-13.4zm0 23.8c-5.3 0-9.7-4.5-9.7-10.4 0-5.7 4.3-10 9.7-10 5.3 0 9.7 4.3 9.7 10 0 5.9-4.3 10.4-9.7 10.4zM212.8 38.4s2.8 2.8 6.7 2.8c2.5 0 4.5-1.4 4.5-3.9 0-5.7-12.7-4.5-12.7-12.5 0-4.1 3.5-7.3 8.5-7.3 4.9 0 7.4 2.6 7.4 2.6l-1.7 3s-2.4-2.3-5.8-2.3c-2.8 0-4.8 1.7-4.8 3.8 0 5.4 12.7 4 12.7 12.5 0 4-3.1 7.4-8.3 7.4-5.6 0-8.7-3.5-8.7-3.5l2.2-2.6z"/><g><path d="M65.8 61.5H64l4.9-11.3h1.4l4.9 11.3h-1.8l-1.1-2.8h-5.4l-1.1 2.8zm1.7-4.1h4.2l-2.1-5.3-2.1 5.3zM82.1 61.5c0-.4-.1-.9-.1-1.2-.4.8-1.4 1.5-2.5 1.5-1.9 0-2.8-1.4-2.8-3.1V54h1.5v4.2c0 1.2.3 2.3 1.7 2.3 1.2 0 2-1 2-2.5v-4h1.5v5.9c0 .4 0 1.1.1 1.6h-1.4zM89.8 55.2H88v6.3h-1.5v-6.3H85V54h1.5v-1.6c0-1.8.8-3.1 2.8-3.1.4 0 .7 0 .9.1l-.2 1.3c-.2-.1-.5-.1-.8-.1-1.1 0-1.3.9-1.3 1.8V54h1.8v1.2zM99.1 61.7c-2.3 0-3.8-1.8-3.8-4s1.5-4 3.8-4c1.2 0 2.2.6 2.7 1.3v-5.6h1.5v12.1h-1.5v-1.2c-.5.9-1.6 1.4-2.7 1.4zm.3-1.2c1.5 0 2.6-1.3 2.6-2.7 0-1.5-1-2.7-2.6-2.7s-2.5 1.3-2.5 2.7.9 2.7 2.5 2.7zM113.2 58.2h-6c0 1.3 1.1 2.3 2.5 2.3 1 0 1.8-.5 2.2-1.2l1.1.8c-.8 1.1-1.9 1.5-3.3 1.5-2.3 0-4-1.6-4-4s1.7-4 3.9-4 3.6 1.5 3.6 3.9v.7zm-1.5-1.1c0-1.2-.7-2.1-2.1-2.1-1.3 0-2.3 1-2.4 2.1h4.5zM115.4 54h1.4c0 .4.1 1 .1 1.3.4-.9 1.3-1.5 2.3-1.5.2 0 .4 0 .6.1l-.1 1.4c-.2 0-.4-.1-.7-.1-1.4 0-2.1 1.2-2.1 2.4v4h-1.5v-5.9V54zM129.6 55.9c-.3-.5-1-.9-1.8-.9-.7 0-1.4.3-1.4 1 0 .6.6.9 1.7 1.1 1.4.3 2.5.9 2.5 2.2 0 1.8-1.5 2.4-3 2.4-1.1 0-2.3-.4-3.1-1.4l1.1-.9c.4.6 1.2 1.1 2 1.1s1.5-.3 1.5-1.1c0-.7-.7-1-2-1.3-1-.2-2.2-.7-2.2-2.1 0-1.6 1.4-2.3 2.9-2.3 1.1 0 2.2.4 2.7 1.2l-.9 1zM133.5 52.2c-.5 0-1-.4-1-1 0-.5.4-1 1-1 .5 0 1 .4 1 1s-.4 1-1 1zm.8 9.3h-1.5V54h1.5v7.5zM142.4 55.9c-.3-.5-1-.9-1.7-.9-1.6 0-2.5 1.3-2.5 2.7 0 1.4.9 2.7 2.5 2.7.8 0 1.4-.3 1.8-.8l1 .9c-.6.7-1.6 1.2-2.8 1.2-2.3 0-4.1-1.6-4.1-4s1.7-4 4-4c1.1 0 2.2.4 2.8 1.2l-1 1zM146.7 55.1c.4-.8 1.3-1.4 2.4-1.4 1.9 0 2.8 1.4 2.8 3.1v4.7h-1.5v-4.2c0-1.2-.3-2.3-1.7-2.3-1.2 0-2 1-2 2.5v4h-1.5v-12h1.5v5.6zM161.6 58.2h-6c0 1.3 1.1 2.3 2.5 2.3 1 0 1.8-.5 2.2-1.2l1.1.8c-.8 1.1-1.9 1.5-3.3 1.5-2.3 0-4-1.6-4-4s1.7-4 3.9-4 3.6 1.5 3.6 3.9c.1.3.1.5 0 .7zm-1.5-1.1c0-1.2-.7-2.1-2.1-2.1-1.3 0-2.3 1-2.4 2.1h4.5zM163.8 54h1.4c0 .4.1 1 .1 1.3.4-.9 1.3-1.5 2.3-1.5.2 0 .4 0 .6.1l-.1 1.4c-.2 0-.4-.1-.7-.1-1.4 0-2.1 1.2-2.1 2.4v4h-1.5v-5.9c.1-.5.1-1.2 0-1.7zM176.6 58.2h-6c0 1.3 1.1 2.3 2.5 2.3 1 0 1.8-.5 2.2-1.2l1.1.8c-.8 1.1-1.9 1.5-3.3 1.5-2.3 0-4-1.6-4-4s1.7-4 3.9-4 3.6 1.5 3.6 3.9v.7zm-1.5-1.1c0-1.2-.7-2.1-2.1-2.1-1.3 0-2.3 1-2.4 2.1h4.5zM180.2 54c0 .4.1.9.1 1.2.4-.8 1.4-1.5 2.5-1.5 1.9 0 2.8 1.4 2.8 3.1v4.7h-1.5v-4.2c0-1.2-.3-2.3-1.7-2.3-1.2 0-2 1-2 2.5v4h-1.5v-5.9c0-.4 0-1.1-.1-1.6h1.4zM198.2 52.3c-.4-.6-1.3-1.1-2.2-1.1-1 0-2.2.6-2.2 1.8 0 1.2 1 1.6 2.3 2 1.5.5 3.3 1.1 3.3 3.3 0 2.3-1.9 3.4-3.9 3.4-1.4 0-2.9-.6-3.7-1.6l1.2-1c.5.8 1.5 1.3 2.5 1.3 1.1 0 2.3-.6 2.3-1.9 0-1.4-1.2-1.7-2.7-2.2-1.4-.4-2.9-1.1-2.9-3.2 0-2.3 2-3.2 3.9-3.2 1.3 0 2.5.5 3.2 1.3l-1.1 1.1zM208.7 58.2h-6c0 1.3 1.1 2.3 2.5 2.3 1 0 1.8-.5 2.2-1.2l1.1.8c-.8 1.1-1.9 1.5-3.3 1.5-2.3 0-4-1.6-4-4s1.7-4 3.9-4 3.6 1.5 3.6 3.9c.1.3.1.5 0 .7zm-1.5-1.1c0-1.2-.7-2.1-2.1-2.1-1.3 0-2.3 1-2.4 2.1h4.5zM211.8 52.2c-.5 0-1-.4-1-1 0-.5.4-1 1-1 .5 0 1 .4 1 1s-.5 1-1 1zm.7 9.3H211V54h1.5v7.5zM219 55.2h-2v3.9c0 .9.3 1.3 1.1 1.3.3 0 .6-.1.9-.2v1.2c-.4.1-.8.2-1.3.2-1.4 0-2.2-.8-2.2-2.4v-4.1H214V54h1.5v-2.2h1.5V54h2v1.2zM227.8 58.2h-6c0 1.3 1.1 2.3 2.5 2.3 1 0 1.8-.5 2.2-1.2l1.1.8c-.8 1.1-1.9 1.5-3.3 1.5-2.3 0-4-1.6-4-4s1.7-4 3.9-4 3.6 1.5 3.6 3.9v.7zm-1.5-1.1c0-1.2-.7-2.1-2.1-2.1-1.3 0-2.3 1-2.4 2.1h4.5z"/></g><g><path class="st0" d="M16 64.7l14-13.9c-2.8-2.8-4.6-6.8-4.6-11.1 0-8.7 7-15.7 15.7-15.7V4.3C21.5 4.3 5.7 20.1 5.7 39.7c0 9.8 3.9 18.6 10.3 25z"/><path d="M41.1 22.4c-9.5 0-17.2 7.7-17.2 17.2 0 4.2 1.5 8.1 4 11.1L11.6 67.1c-.8.8-.8 2 0 2.8.4.4.9.6 1.4.6s1-.2 1.4-.6l16.4-16.4c2.9 2.1 6.4 3.4 10.3 3.4 9.5 0 17.2-7.7 17.2-17.2s-7.7-17.3-17.2-17.3zm0 31.5c-7.9 0-14.2-6.4-14.2-14.2s6.4-14.2 14.2-14.2c7.9 0 14.2 6.4 14.2 14.2s-6.4 14.2-14.2 14.2z"/><path d="M41.1 76.1C21 76.1 4.7 59.8 4.7 39.7S21 3.3 41.1 3.3v2c-19 0-34.4 15.4-34.4 34.4s15.4 34.4 34.4 34.4v2z"/><path d="M41.1 69c-16.2 0-29.4-13.2-29.4-29.4s13.2-29.4 29.4-29.4v1c-15.6 0-28.4 12.7-28.4 28.4S25.4 68 41.1 68v1z"/><path d="M41.1 63c-12.9 0-23.3-10.5-23.3-23.3s10.5-23.3 23.3-23.3v1c-12.3 0-22.3 10-22.3 22.3S28.8 62 41.1 62v1z"/></g></svg>